# xmcd
#
# Track frame offsets:
#	182
#	11647
#	22755
#	35862
#	48752
#	58732
#	68592
#	79805
#	93145
#	102815
#	118290
#	129077
#	145210
#	154725
#	163450
#	174155
#	184392
#	199620
#
# Disc length: 2920
#
# Revision: 1
# Processed by: cddbd v1.5.1PL0 Copyright (c) Steve Scherf et al.
# Submitted via: EasyCDDAExtractor 5.0.4.1
# Normalized: r0:DSETVAR1
#
DISCID=ea0b6612
DTITLE=Various Artist - Swing For A Crime
DYEAR=1988
DGENRE=Swing
TTITLE0=The Hollywood Persuaders - Drums A-Go-Go
TTITLE1=Patsy Raye and The Beatnicks - Beatnik's Wish
TTITLE2=Johnny Brown and The Joy Boys - Suspense
TTITLE3=Ric Gary - Pimples And Braces
TTITLE4=Barney Kessel - Honey Rock
TTITLE5=Sy Oliver - Stu's Blues
TTITLE6=Les Baxter - Boomada
TTITLE7=Bing Day - Mama's Place
TTITLE8=The Vikings - Nicotine
TTITLE9=Art Van Dam - Voodoo Doll
TTITLE10=Cozy Cole - Big Noise From Winnetka
TTITLE11=Linda Bernette - My Old Model T
TTITLE12=The Triumphs - Joust About
TTITLE13=The Originals - The Whip
TTITLE14=The Viscounts - Harlem Nocturne
TTITLE15=Nat Hendrick and The Swans - Hot Chile
TTITLE16=The Royal Jokers - Vibrations
TTITLE17=Tony Rodelle Larson - Bear Rug
EXTD=
EXTT0=
EXTT1=
EXTT2=
EXTT3=
EXTT4=
EXTT5=
EXTT6=
EXTT7=
EXTT8=
EXTT9=
EXTT10=
EXTT11=
EXTT12=
EXTT13=
EXTT14=
EXTT15=
EXTT16=
EXTT17=
PLAYORDER=
